<mxfile host="app.diagrams.net" agent="Mozilla/5.0 (Windows NT 10.0; Win64; x64) AppleWebKit/537.36 (KHTML, like Gecko) Chrome/141.0.0.0 Safari/537.36" version="28.2.8">
  <diagram name="Pagina-1" id="DFlVhxMEMoTKHlJF9PO9">
    <mxGraphModel dx="1906" dy="971" grid="1" gridSize="10" guides="1" tooltips="1" connect="1" arrows="1" fold="1" page="1" pageScale="1" pageWidth="827" pageHeight="1169" math="0" shadow="0">
      <root>
        <mxCell id="0" />
        <mxCell id="1" parent="0" />
        <mxCell id="KONgexnpUvgXJjRVOLqW-131" value="MAIL SERVER&#xa;E PROTOCOLLI" style="whiteSpace=wrap;strokeWidth=2;" vertex="1" parent="1">
          <mxGeometry x="5021" y="240" width="163" height="78" as="geometry" />
        </mxCell>
        <mxCell id="KONgexnpUvgXJjRVOLqW-132" value="PROTOCOLLI" style="whiteSpace=wrap;strokeWidth=2;" vertex="1" parent="1">
          <mxGeometry x="1219" y="368" width="149" height="54" as="geometry" />
        </mxCell>
        <mxCell id="KONgexnpUvgXJjRVOLqW-133" value="SMTP&#xa;Simple Mail Transfer Protocol" style="whiteSpace=wrap;strokeWidth=2;" vertex="1" parent="1">
          <mxGeometry x="208" y="472" width="260" height="102" as="geometry" />
        </mxCell>
        <mxCell id="KONgexnpUvgXJjRVOLqW-134" value="Porta 25/587/465" style="whiteSpace=wrap;strokeWidth=2;" vertex="1" parent="1">
          <mxGeometry x="20" y="636" width="186" height="54" as="geometry" />
        </mxCell>
        <mxCell id="KONgexnpUvgXJjRVOLqW-135" value="Invio messaggi" style="whiteSpace=wrap;strokeWidth=2;" vertex="1" parent="1">
          <mxGeometry x="256" y="636" width="163" height="54" as="geometry" />
        </mxCell>
        <mxCell id="KONgexnpUvgXJjRVOLqW-136" value="Relay mail" style="whiteSpace=wrap;strokeWidth=2;" vertex="1" parent="1">
          <mxGeometry x="469" y="636" width="134" height="54" as="geometry" />
        </mxCell>
        <mxCell id="KONgexnpUvgXJjRVOLqW-137" value="POP3&#xa;Post Office Protocol v3" style="whiteSpace=wrap;strokeWidth=2;" vertex="1" parent="1">
          <mxGeometry x="836" y="484" width="223" height="78" as="geometry" />
        </mxCell>
        <mxCell id="KONgexnpUvgXJjRVOLqW-138" value="Porta 110/995" style="whiteSpace=wrap;strokeWidth=2;" vertex="1" parent="1">
          <mxGeometry x="654" y="636" width="161" height="54" as="geometry" />
        </mxCell>
        <mxCell id="KONgexnpUvgXJjRVOLqW-139" value="Download mail" style="whiteSpace=wrap;strokeWidth=2;" vertex="1" parent="1">
          <mxGeometry x="865" y="636" width="165" height="54" as="geometry" />
        </mxCell>
        <mxCell id="KONgexnpUvgXJjRVOLqW-140" value="Cancellazione server" style="whiteSpace=wrap;strokeWidth=2;" vertex="1" parent="1">
          <mxGeometry x="1080" y="636" width="208" height="54" as="geometry" />
        </mxCell>
        <mxCell id="KONgexnpUvgXJjRVOLqW-141" value="IMAP&#xa;Internet Message Access Protocol" style="whiteSpace=wrap;strokeWidth=2;" vertex="1" parent="1">
          <mxGeometry x="1510" y="472" width="260" height="102" as="geometry" />
        </mxCell>
        <mxCell id="KONgexnpUvgXJjRVOLqW-142" value="Porta 143/993" style="whiteSpace=wrap;strokeWidth=2;" vertex="1" parent="1">
          <mxGeometry x="1339" y="636" width="161" height="54" as="geometry" />
        </mxCell>
        <mxCell id="KONgexnpUvgXJjRVOLqW-143" value="Sincronizzazione" style="whiteSpace=wrap;strokeWidth=2;" vertex="1" parent="1">
          <mxGeometry x="1550" y="636" width="179" height="54" as="geometry" />
        </mxCell>
        <mxCell id="KONgexnpUvgXJjRVOLqW-144" value="Gestione cartelle" style="whiteSpace=wrap;strokeWidth=2;" vertex="1" parent="1">
          <mxGeometry x="1779" y="636" width="184" height="54" as="geometry" />
        </mxCell>
        <mxCell id="KONgexnpUvgXJjRVOLqW-145" value="PROTOCOLLI ACCESSORI" style="whiteSpace=wrap;strokeWidth=2;" vertex="1" parent="1">
          <mxGeometry x="2217" y="496" width="230" height="54" as="geometry" />
        </mxCell>
        <mxCell id="KONgexnpUvgXJjRVOLqW-146" value="DNS/MX Records" style="whiteSpace=wrap;strokeWidth=2;" vertex="1" parent="1">
          <mxGeometry x="2013" y="636" width="177" height="54" as="geometry" />
        </mxCell>
        <mxCell id="KONgexnpUvgXJjRVOLqW-147" value="SPF/DKIM/DMARC" style="whiteSpace=wrap;strokeWidth=2;" vertex="1" parent="1">
          <mxGeometry x="2239" y="636" width="186" height="54" as="geometry" />
        </mxCell>
        <mxCell id="KONgexnpUvgXJjRVOLqW-148" value="TLS/SSL" style="whiteSpace=wrap;strokeWidth=2;" vertex="1" parent="1">
          <mxGeometry x="2475" y="636" width="117" height="54" as="geometry" />
        </mxCell>
        <mxCell id="KONgexnpUvgXJjRVOLqW-149" value="ATTIVITÃ€ DA SVOLGERE" style="whiteSpace=wrap;strokeWidth=2;" vertex="1" parent="1">
          <mxGeometry x="3867" y="368" width="225" height="54" as="geometry" />
        </mxCell>
        <mxCell id="KONgexnpUvgXJjRVOLqW-150" value="e. Presentazione" style="whiteSpace=wrap;strokeWidth=2;" vertex="1" parent="1">
          <mxGeometry x="2853" y="496" width="179" height="54" as="geometry" />
        </mxCell>
        <mxCell id="KONgexnpUvgXJjRVOLqW-151" value="Slide teoriche" style="whiteSpace=wrap;strokeWidth=2;" vertex="1" parent="1">
          <mxGeometry x="2642" y="636" width="159" height="54" as="geometry" />
        </mxCell>
        <mxCell id="KONgexnpUvgXJjRVOLqW-152" value="Diagrammi flusso" style="whiteSpace=wrap;strokeWidth=2;" vertex="1" parent="1">
          <mxGeometry x="2852" y="636" width="182" height="54" as="geometry" />
        </mxCell>
        <mxCell id="KONgexnpUvgXJjRVOLqW-153" value="Confronto protocolli" style="whiteSpace=wrap;strokeWidth=2;" vertex="1" parent="1">
          <mxGeometry x="3084" y="636" width="205" height="54" as="geometry" />
        </mxCell>
        <mxCell id="KONgexnpUvgXJjRVOLqW-162" value="h. Esempio Applicativo" style="whiteSpace=wrap;strokeWidth=2;" vertex="1" parent="1">
          <mxGeometry x="4858" y="496" width="223" height="54" as="geometry" />
        </mxCell>
        <mxCell id="KONgexnpUvgXJjRVOLqW-163" value="VM Ubuntu Server" style="whiteSpace=wrap;strokeWidth=2;" vertex="1" parent="1">
          <mxGeometry x="4639" y="636" width="188" height="54" as="geometry" />
        </mxCell>
        <mxCell id="KONgexnpUvgXJjRVOLqW-164" value="Postfix + Dovecot" style="whiteSpace=wrap;strokeWidth=2;" vertex="1" parent="1">
          <mxGeometry x="4877" y="636" width="184" height="54" as="geometry" />
        </mxCell>
        <mxCell id="KONgexnpUvgXJjRVOLqW-165" value="Test e Wireshark" style="whiteSpace=wrap;strokeWidth=2;" vertex="1" parent="1">
          <mxGeometry x="5111" y="636" width="178" height="54" as="geometry" />
        </mxCell>
        <mxCell id="KONgexnpUvgXJjRVOLqW-166" value="RISORSE E STRUMENTI" style="whiteSpace=wrap;strokeWidth=2;" vertex="1" parent="1">
          <mxGeometry x="6443" y="368" width="217" height="54" as="geometry" />
        </mxCell>
        <mxCell id="KONgexnpUvgXJjRVOLqW-167" value="SOFTWARE" style="whiteSpace=wrap;strokeWidth=2;" vertex="1" parent="1">
          <mxGeometry x="5727" y="496" width="136" height="54" as="geometry" />
        </mxCell>
        <mxCell id="KONgexnpUvgXJjRVOLqW-169" value="VirtualBox/VMware" style="whiteSpace=wrap;strokeWidth=2;" vertex="1" parent="1">
          <mxGeometry x="5450" y="630" width="198" height="54" as="geometry" />
        </mxCell>
        <mxCell id="KONgexnpUvgXJjRVOLqW-171" value="Postfix/Dovecot" style="whiteSpace=wrap;strokeWidth=2;" vertex="1" parent="1">
          <mxGeometry x="5910" y="648" width="174" height="54" as="geometry" />
        </mxCell>
        <mxCell id="KONgexnpUvgXJjRVOLqW-172" value="PIATTAFORME" style="whiteSpace=wrap;strokeWidth=2;" vertex="1" parent="1">
          <mxGeometry x="6473" y="496" width="156" height="54" as="geometry" />
        </mxCell>
        <mxCell id="KONgexnpUvgXJjRVOLqW-173" value="PowerPoint/Canva" style="whiteSpace=wrap;strokeWidth=2;" vertex="1" parent="1">
          <mxGeometry x="6241" y="636" width="191" height="54" as="geometry" />
        </mxCell>
        <mxCell id="KONgexnpUvgXJjRVOLqW-174" value="OBS Studio" style="whiteSpace=wrap;strokeWidth=2;" vertex="1" parent="1">
          <mxGeometry x="6483" y="636" width="137" height="54" as="geometry" />
        </mxCell>
        <mxCell id="KONgexnpUvgXJjRVOLqW-175" value="MailHog test server" style="whiteSpace=wrap;strokeWidth=2;" vertex="1" parent="1">
          <mxGeometry x="6670" y="636" width="198" height="54" as="geometry" />
        </mxCell>
        <mxCell id="KONgexnpUvgXJjRVOLqW-176" value="MATERIALE" style="whiteSpace=wrap;strokeWidth=2;" vertex="1" parent="1">
          <mxGeometry x="7168" y="496" width="217" height="54" as="geometry" />
        </mxCell>
        <mxCell id="KONgexnpUvgXJjRVOLqW-177" value="Libro Vol.4 pag.378" style="whiteSpace=wrap;strokeWidth=2;" vertex="1" parent="1">
          <mxGeometry x="6918" y="636" width="198" height="54" as="geometry" />
        </mxCell>
        <mxCell id="KONgexnpUvgXJjRVOLqW-178" value="Dispense Moodle UdA1" style="whiteSpace=wrap;strokeWidth=2;" vertex="1" parent="1">
          <mxGeometry x="7166" y="636" width="220" height="54" as="geometry" />
        </mxCell>
        <mxCell id="KONgexnpUvgXJjRVOLqW-179" value="RFC e documentazione" style="whiteSpace=wrap;strokeWidth=2;" vertex="1" parent="1">
          <mxGeometry x="7436" y="636" width="224" height="54" as="geometry" />
        </mxCell>
        <mxCell id="KONgexnpUvgXJjRVOLqW-180" value="COMPETENZE DA ACQUISIRE" style="whiteSpace=wrap;strokeWidth=2;" vertex="1" parent="1">
          <mxGeometry x="9049" y="368" width="256" height="54" as="geometry" />
        </mxCell>
        <mxCell id="KONgexnpUvgXJjRVOLqW-181" value="CONOSCENZE" style="whiteSpace=wrap;strokeWidth=2;" vertex="1" parent="1">
          <mxGeometry x="8119" y="496" width="155" height="54" as="geometry" />
        </mxCell>
        <mxCell id="KONgexnpUvgXJjRVOLqW-182" value="Architettura mail" style="whiteSpace=wrap;strokeWidth=2;" vertex="1" parent="1">
          <mxGeometry x="7710" y="636" width="184" height="54" as="geometry" />
        </mxCell>
        <mxCell id="KONgexnpUvgXJjRVOLqW-183" value="Funzionamento protocolli" style="whiteSpace=wrap;strokeWidth=2;" vertex="1" parent="1">
          <mxGeometry x="7944" y="636" width="243" height="54" as="geometry" />
        </mxCell>
        <mxCell id="KONgexnpUvgXJjRVOLqW-184" value="Porte e sicurezza" style="whiteSpace=wrap;strokeWidth=2;" vertex="1" parent="1">
          <mxGeometry x="8237" y="636" width="183" height="54" as="geometry" />
        </mxCell>
        <mxCell id="KONgexnpUvgXJjRVOLqW-185" value="MX e DNS" style="whiteSpace=wrap;strokeWidth=2;" vertex="1" parent="1">
          <mxGeometry x="8470" y="636" width="126" height="54" as="geometry" />
        </mxCell>
        <mxCell id="KONgexnpUvgXJjRVOLqW-186" value="ABILITÃ€" style="whiteSpace=wrap;strokeWidth=2;" vertex="1" parent="1">
          <mxGeometry x="9121" y="496" width="114" height="54" as="geometry" />
        </mxCell>
        <mxCell id="KONgexnpUvgXJjRVOLqW-187" value="Configurare mail server" style="whiteSpace=wrap;strokeWidth=2;" vertex="1" parent="1">
          <mxGeometry x="8646" y="636" width="229" height="54" as="geometry" />
        </mxCell>
        <mxCell id="KONgexnpUvgXJjRVOLqW-188" value="Analizzare traffico mail" style="whiteSpace=wrap;strokeWidth=2;" vertex="1" parent="1">
          <mxGeometry x="8925" y="636" width="229" height="54" as="geometry" />
        </mxCell>
        <mxCell id="KONgexnpUvgXJjRVOLqW-189" value="Diagnosticare problemi" style="whiteSpace=wrap;strokeWidth=2;" vertex="1" parent="1">
          <mxGeometry x="9203" y="636" width="226" height="54" as="geometry" />
        </mxCell>
        <mxCell id="KONgexnpUvgXJjRVOLqW-190" value="Implementare sicurezza" style="whiteSpace=wrap;strokeWidth=2;" vertex="1" parent="1">
          <mxGeometry x="9479" y="636" width="232" height="54" as="geometry" />
        </mxCell>
        <mxCell id="KONgexnpUvgXJjRVOLqW-191" value="COMPETENZE" style="whiteSpace=wrap;strokeWidth=2;" vertex="1" parent="1">
          <mxGeometry x="10261" y="496" width="155" height="54" as="geometry" />
        </mxCell>
        <mxCell id="KONgexnpUvgXJjRVOLqW-192" value="Progettare infrastruttura mail" style="whiteSpace=wrap;strokeWidth=2;" vertex="1" parent="1">
          <mxGeometry x="9970" y="648" width="260" height="78" as="geometry" />
        </mxCell>
        <mxCell id="KONgexnpUvgXJjRVOLqW-193" value="Gestione server" style="whiteSpace=wrap;strokeWidth=2;" vertex="1" parent="1">
          <mxGeometry x="10440" y="660" width="245" height="54" as="geometry" />
        </mxCell>
        <mxCell id="KONgexnpUvgXJjRVOLqW-196" value="" style="curved=1;startArrow=none;endArrow=block;exitX=0;exitY=0.52;entryX=0.5;entryY=0;rounded=0;" edge="1" parent="1" source="KONgexnpUvgXJjRVOLqW-131" target="KONgexnpUvgXJjRVOLqW-132">
          <mxGeometry relative="1" as="geometry">
            <Array as="points">
              <mxPoint x="1294" y="343" />
            </Array>
          </mxGeometry>
        </mxCell>
        <mxCell id="KONgexnpUvgXJjRVOLqW-197" value="" style="curved=1;startArrow=none;endArrow=block;exitX=0;exitY=0.57;entryX=0.5;entryY=0;rounded=0;" edge="1" parent="1" source="KONgexnpUvgXJjRVOLqW-132" target="KONgexnpUvgXJjRVOLqW-133">
          <mxGeometry relative="1" as="geometry">
            <Array as="points">
              <mxPoint x="338" y="447" />
            </Array>
          </mxGeometry>
        </mxCell>
        <mxCell id="KONgexnpUvgXJjRVOLqW-198" value="" style="curved=1;startArrow=none;endArrow=block;exitX=0;exitY=0.93;entryX=0.5;entryY=0;rounded=0;" edge="1" parent="1" source="KONgexnpUvgXJjRVOLqW-133" target="KONgexnpUvgXJjRVOLqW-134">
          <mxGeometry relative="1" as="geometry">
            <Array as="points">
              <mxPoint x="113" y="599" />
            </Array>
          </mxGeometry>
        </mxCell>
        <mxCell id="KONgexnpUvgXJjRVOLqW-199" value="" style="curved=1;startArrow=none;endArrow=block;exitX=0.5;exitY=1;entryX=0.5;entryY=0;rounded=0;" edge="1" parent="1" source="KONgexnpUvgXJjRVOLqW-133" target="KONgexnpUvgXJjRVOLqW-135">
          <mxGeometry relative="1" as="geometry">
            <Array as="points" />
          </mxGeometry>
        </mxCell>
        <mxCell id="KONgexnpUvgXJjRVOLqW-200" value="" style="curved=1;startArrow=none;endArrow=block;exitX=1;exitY=0.99;entryX=0.5;entryY=0;rounded=0;" edge="1" parent="1" source="KONgexnpUvgXJjRVOLqW-133" target="KONgexnpUvgXJjRVOLqW-136">
          <mxGeometry relative="1" as="geometry">
            <Array as="points">
              <mxPoint x="537" y="599" />
            </Array>
          </mxGeometry>
        </mxCell>
        <mxCell id="KONgexnpUvgXJjRVOLqW-201" value="" style="curved=1;startArrow=none;endArrow=block;exitX=0;exitY=0.71;entryX=0.5;entryY=0;rounded=0;" edge="1" parent="1" source="KONgexnpUvgXJjRVOLqW-132" target="KONgexnpUvgXJjRVOLqW-137">
          <mxGeometry relative="1" as="geometry">
            <Array as="points">
              <mxPoint x="948" y="447" />
            </Array>
          </mxGeometry>
        </mxCell>
        <mxCell id="KONgexnpUvgXJjRVOLqW-202" value="" style="curved=1;startArrow=none;endArrow=block;exitX=0.01;exitY=1;entryX=0.5;entryY=0;rounded=0;" edge="1" parent="1" source="KONgexnpUvgXJjRVOLqW-137" target="KONgexnpUvgXJjRVOLqW-138">
          <mxGeometry relative="1" as="geometry">
            <Array as="points">
              <mxPoint x="734" y="599" />
            </Array>
          </mxGeometry>
        </mxCell>
        <mxCell id="KONgexnpUvgXJjRVOLqW-203" value="" style="curved=1;startArrow=none;endArrow=block;exitX=0.5;exitY=1;entryX=0.5;entryY=0;rounded=0;" edge="1" parent="1" source="KONgexnpUvgXJjRVOLqW-137" target="KONgexnpUvgXJjRVOLqW-139">
          <mxGeometry relative="1" as="geometry">
            <Array as="points" />
          </mxGeometry>
        </mxCell>
        <mxCell id="KONgexnpUvgXJjRVOLqW-204" value="" style="curved=1;startArrow=none;endArrow=block;exitX=1;exitY=0.96;entryX=0.5;entryY=0;rounded=0;" edge="1" parent="1" source="KONgexnpUvgXJjRVOLqW-137" target="KONgexnpUvgXJjRVOLqW-140">
          <mxGeometry relative="1" as="geometry">
            <Array as="points">
              <mxPoint x="1185" y="599" />
            </Array>
          </mxGeometry>
        </mxCell>
        <mxCell id="KONgexnpUvgXJjRVOLqW-205" value="" style="curved=1;startArrow=none;endArrow=block;exitX=1;exitY=0.71;entryX=0.5;entryY=0;rounded=0;" edge="1" parent="1" source="KONgexnpUvgXJjRVOLqW-132" target="KONgexnpUvgXJjRVOLqW-141">
          <mxGeometry relative="1" as="geometry">
            <Array as="points">
              <mxPoint x="1640" y="447" />
            </Array>
          </mxGeometry>
        </mxCell>
        <mxCell id="KONgexnpUvgXJjRVOLqW-206" value="" style="curved=1;startArrow=none;endArrow=block;exitX=0;exitY=0.94;entryX=0.5;entryY=0;rounded=0;" edge="1" parent="1" source="KONgexnpUvgXJjRVOLqW-141" target="KONgexnpUvgXJjRVOLqW-142">
          <mxGeometry relative="1" as="geometry">
            <Array as="points">
              <mxPoint x="1420" y="599" />
            </Array>
          </mxGeometry>
        </mxCell>
        <mxCell id="KONgexnpUvgXJjRVOLqW-207" value="" style="curved=1;startArrow=none;endArrow=block;exitX=0.5;exitY=1;entryX=0.5;entryY=0;rounded=0;" edge="1" parent="1" source="KONgexnpUvgXJjRVOLqW-141" target="KONgexnpUvgXJjRVOLqW-143">
          <mxGeometry relative="1" as="geometry">
            <Array as="points" />
          </mxGeometry>
        </mxCell>
        <mxCell id="KONgexnpUvgXJjRVOLqW-208" value="" style="curved=1;startArrow=none;endArrow=block;exitX=1;exitY=0.92;entryX=0.5;entryY=0;rounded=0;" edge="1" parent="1" source="KONgexnpUvgXJjRVOLqW-141" target="KONgexnpUvgXJjRVOLqW-144">
          <mxGeometry relative="1" as="geometry">
            <Array as="points">
              <mxPoint x="1871" y="599" />
            </Array>
          </mxGeometry>
        </mxCell>
        <mxCell id="KONgexnpUvgXJjRVOLqW-209" value="" style="curved=1;startArrow=none;endArrow=block;exitX=1;exitY=0.57;entryX=0.5;entryY=0;rounded=0;" edge="1" parent="1" source="KONgexnpUvgXJjRVOLqW-132" target="KONgexnpUvgXJjRVOLqW-145">
          <mxGeometry relative="1" as="geometry">
            <Array as="points">
              <mxPoint x="2332" y="447" />
            </Array>
          </mxGeometry>
        </mxCell>
        <mxCell id="KONgexnpUvgXJjRVOLqW-210" value="" style="curved=1;startArrow=none;endArrow=block;exitX=0.14;exitY=1;entryX=0.5;entryY=0;rounded=0;" edge="1" parent="1" source="KONgexnpUvgXJjRVOLqW-145" target="KONgexnpUvgXJjRVOLqW-146">
          <mxGeometry relative="1" as="geometry">
            <Array as="points">
              <mxPoint x="2101" y="599" />
            </Array>
          </mxGeometry>
        </mxCell>
        <mxCell id="KONgexnpUvgXJjRVOLqW-211" value="" style="curved=1;startArrow=none;endArrow=block;exitX=0.5;exitY=1;entryX=0.5;entryY=0;rounded=0;" edge="1" parent="1" source="KONgexnpUvgXJjRVOLqW-145" target="KONgexnpUvgXJjRVOLqW-147">
          <mxGeometry relative="1" as="geometry">
            <Array as="points" />
          </mxGeometry>
        </mxCell>
        <mxCell id="KONgexnpUvgXJjRVOLqW-212" value="" style="curved=1;startArrow=none;endArrow=block;exitX=0.81;exitY=1;entryX=0.5;entryY=0;rounded=0;" edge="1" parent="1" source="KONgexnpUvgXJjRVOLqW-145" target="KONgexnpUvgXJjRVOLqW-148">
          <mxGeometry relative="1" as="geometry">
            <Array as="points">
              <mxPoint x="2534" y="599" />
            </Array>
          </mxGeometry>
        </mxCell>
        <mxCell id="KONgexnpUvgXJjRVOLqW-213" value="" style="curved=1;startArrow=none;endArrow=block;exitX=0;exitY=0.56;entryX=0.5;entryY=0;rounded=0;" edge="1" parent="1" source="KONgexnpUvgXJjRVOLqW-131" target="KONgexnpUvgXJjRVOLqW-149">
          <mxGeometry relative="1" as="geometry">
            <Array as="points">
              <mxPoint x="3980" y="343" />
            </Array>
          </mxGeometry>
        </mxCell>
        <mxCell id="KONgexnpUvgXJjRVOLqW-214" value="" style="curved=1;startArrow=none;endArrow=block;exitX=0;exitY=0.6;entryX=0.5;entryY=0;rounded=0;" edge="1" parent="1" source="KONgexnpUvgXJjRVOLqW-149" target="KONgexnpUvgXJjRVOLqW-150">
          <mxGeometry relative="1" as="geometry">
            <Array as="points">
              <mxPoint x="2943" y="447" />
            </Array>
          </mxGeometry>
        </mxCell>
        <mxCell id="KONgexnpUvgXJjRVOLqW-215" value="" style="curved=1;startArrow=none;endArrow=block;exitX=0.06;exitY=1;entryX=0.5;entryY=0;rounded=0;" edge="1" parent="1" source="KONgexnpUvgXJjRVOLqW-150" target="KONgexnpUvgXJjRVOLqW-151">
          <mxGeometry relative="1" as="geometry">
            <Array as="points">
              <mxPoint x="2722" y="599" />
            </Array>
          </mxGeometry>
        </mxCell>
        <mxCell id="KONgexnpUvgXJjRVOLqW-216" value="" style="curved=1;startArrow=none;endArrow=block;exitX=0.5;exitY=1;entryX=0.5;entryY=0;rounded=0;" edge="1" parent="1" source="KONgexnpUvgXJjRVOLqW-150" target="KONgexnpUvgXJjRVOLqW-152">
          <mxGeometry relative="1" as="geometry">
            <Array as="points" />
          </mxGeometry>
        </mxCell>
        <mxCell id="KONgexnpUvgXJjRVOLqW-217" value="" style="curved=1;startArrow=none;endArrow=block;exitX=0.99;exitY=1;entryX=0.5;entryY=0;rounded=0;" edge="1" parent="1" source="KONgexnpUvgXJjRVOLqW-150" target="KONgexnpUvgXJjRVOLqW-153">
          <mxGeometry relative="1" as="geometry">
            <Array as="points">
              <mxPoint x="3187" y="599" />
            </Array>
          </mxGeometry>
        </mxCell>
        <mxCell id="KONgexnpUvgXJjRVOLqW-226" value="" style="curved=1;startArrow=none;endArrow=block;exitX=1;exitY=0.61;entryX=0.5;entryY=0;rounded=0;" edge="1" parent="1" source="KONgexnpUvgXJjRVOLqW-149" target="KONgexnpUvgXJjRVOLqW-162">
          <mxGeometry relative="1" as="geometry">
            <Array as="points">
              <mxPoint x="4969" y="447" />
            </Array>
          </mxGeometry>
        </mxCell>
        <mxCell id="KONgexnpUvgXJjRVOLqW-227" value="" style="curved=1;startArrow=none;endArrow=block;exitX=0.12;exitY=1;entryX=0.5;entryY=0;rounded=0;" edge="1" parent="1" source="KONgexnpUvgXJjRVOLqW-162" target="KONgexnpUvgXJjRVOLqW-163">
          <mxGeometry relative="1" as="geometry">
            <Array as="points">
              <mxPoint x="4733" y="599" />
            </Array>
          </mxGeometry>
        </mxCell>
        <mxCell id="KONgexnpUvgXJjRVOLqW-228" value="" style="curved=1;startArrow=none;endArrow=block;exitX=0.5;exitY=1;entryX=0.5;entryY=0;rounded=0;" edge="1" parent="1" source="KONgexnpUvgXJjRVOLqW-162" target="KONgexnpUvgXJjRVOLqW-164">
          <mxGeometry relative="1" as="geometry">
            <Array as="points" />
          </mxGeometry>
        </mxCell>
        <mxCell id="KONgexnpUvgXJjRVOLqW-229" value="" style="curved=1;startArrow=none;endArrow=block;exitX=0.87;exitY=1;entryX=0.5;entryY=0;rounded=0;" edge="1" parent="1" source="KONgexnpUvgXJjRVOLqW-162" target="KONgexnpUvgXJjRVOLqW-165">
          <mxGeometry relative="1" as="geometry">
            <Array as="points">
              <mxPoint x="5200" y="599" />
            </Array>
          </mxGeometry>
        </mxCell>
        <mxCell id="KONgexnpUvgXJjRVOLqW-230" value="" style="curved=1;startArrow=none;endArrow=block;exitX=1;exitY=0.55;entryX=0.5;entryY=0;rounded=0;" edge="1" parent="1" source="KONgexnpUvgXJjRVOLqW-131" target="KONgexnpUvgXJjRVOLqW-166">
          <mxGeometry relative="1" as="geometry">
            <Array as="points">
              <mxPoint x="6551" y="343" />
            </Array>
          </mxGeometry>
        </mxCell>
        <mxCell id="KONgexnpUvgXJjRVOLqW-231" value="" style="curved=1;startArrow=none;endArrow=block;exitX=0;exitY=0.64;entryX=0.5;entryY=0;rounded=0;" edge="1" parent="1" source="KONgexnpUvgXJjRVOLqW-166" target="KONgexnpUvgXJjRVOLqW-167">
          <mxGeometry relative="1" as="geometry">
            <Array as="points">
              <mxPoint x="5794" y="447" />
            </Array>
          </mxGeometry>
        </mxCell>
        <mxCell id="KONgexnpUvgXJjRVOLqW-233" value="" style="curved=1;startArrow=none;endArrow=block;exitX=0.22;exitY=1;entryX=0.5;entryY=0;rounded=0;" edge="1" parent="1" source="KONgexnpUvgXJjRVOLqW-167" target="KONgexnpUvgXJjRVOLqW-169">
          <mxGeometry relative="1" as="geometry">
            <Array as="points">
              <mxPoint x="5630" y="570" />
            </Array>
          </mxGeometry>
        </mxCell>
        <mxCell id="KONgexnpUvgXJjRVOLqW-235" value="" style="curved=1;startArrow=none;endArrow=block;exitX=0.99;exitY=0.81;entryX=0.5;entryY=0;rounded=0;" edge="1" parent="1" source="KONgexnpUvgXJjRVOLqW-167" target="KONgexnpUvgXJjRVOLqW-171">
          <mxGeometry relative="1" as="geometry">
            <Array as="points">
              <mxPoint x="6040" y="590" />
            </Array>
          </mxGeometry>
        </mxCell>
        <mxCell id="KONgexnpUvgXJjRVOLqW-236" value="" style="curved=1;startArrow=none;endArrow=block;exitX=0.5;exitY=1;entryX=0.5;entryY=0;rounded=0;" edge="1" parent="1" source="KONgexnpUvgXJjRVOLqW-166" target="KONgexnpUvgXJjRVOLqW-172">
          <mxGeometry relative="1" as="geometry">
            <Array as="points" />
          </mxGeometry>
        </mxCell>
        <mxCell id="KONgexnpUvgXJjRVOLqW-237" value="" style="curved=1;startArrow=none;endArrow=block;exitX=0.01;exitY=1;entryX=0.5;entryY=0;rounded=0;" edge="1" parent="1" source="KONgexnpUvgXJjRVOLqW-172" target="KONgexnpUvgXJjRVOLqW-173">
          <mxGeometry relative="1" as="geometry">
            <Array as="points">
              <mxPoint x="6337" y="599" />
            </Array>
          </mxGeometry>
        </mxCell>
        <mxCell id="KONgexnpUvgXJjRVOLqW-238" value="" style="curved=1;startArrow=none;endArrow=block;exitX=0.5;exitY=1;entryX=0.5;entryY=0;rounded=0;" edge="1" parent="1" source="KONgexnpUvgXJjRVOLqW-172" target="KONgexnpUvgXJjRVOLqW-174">
          <mxGeometry relative="1" as="geometry">
            <Array as="points" />
          </mxGeometry>
        </mxCell>
        <mxCell id="KONgexnpUvgXJjRVOLqW-239" value="" style="curved=1;startArrow=none;endArrow=block;exitX=1;exitY=1;entryX=0.5;entryY=0;rounded=0;" edge="1" parent="1" source="KONgexnpUvgXJjRVOLqW-172" target="KONgexnpUvgXJjRVOLqW-175">
          <mxGeometry relative="1" as="geometry">
            <Array as="points">
              <mxPoint x="6769" y="599" />
            </Array>
          </mxGeometry>
        </mxCell>
        <mxCell id="KONgexnpUvgXJjRVOLqW-240" value="" style="curved=1;startArrow=none;endArrow=block;exitX=1;exitY=0.64;entryX=0.5;entryY=0;rounded=0;" edge="1" parent="1" source="KONgexnpUvgXJjRVOLqW-166" target="KONgexnpUvgXJjRVOLqW-176">
          <mxGeometry relative="1" as="geometry">
            <Array as="points">
              <mxPoint x="7276" y="447" />
            </Array>
          </mxGeometry>
        </mxCell>
        <mxCell id="KONgexnpUvgXJjRVOLqW-241" value="" style="curved=1;startArrow=none;endArrow=block;exitX=0.07;exitY=1;entryX=0.5;entryY=0;rounded=0;" edge="1" parent="1" source="KONgexnpUvgXJjRVOLqW-176" target="KONgexnpUvgXJjRVOLqW-177">
          <mxGeometry relative="1" as="geometry">
            <Array as="points">
              <mxPoint x="7017" y="599" />
            </Array>
          </mxGeometry>
        </mxCell>
        <mxCell id="KONgexnpUvgXJjRVOLqW-242" value="" style="curved=1;startArrow=none;endArrow=block;exitX=0.5;exitY=1;entryX=0.5;entryY=0;rounded=0;" edge="1" parent="1" source="KONgexnpUvgXJjRVOLqW-176" target="KONgexnpUvgXJjRVOLqW-178">
          <mxGeometry relative="1" as="geometry">
            <Array as="points" />
          </mxGeometry>
        </mxCell>
        <mxCell id="KONgexnpUvgXJjRVOLqW-243" value="" style="curved=1;startArrow=none;endArrow=block;exitX=0.94;exitY=1;entryX=0.5;entryY=0;rounded=0;" edge="1" parent="1" source="KONgexnpUvgXJjRVOLqW-176" target="KONgexnpUvgXJjRVOLqW-179">
          <mxGeometry relative="1" as="geometry">
            <Array as="points">
              <mxPoint x="7548" y="599" />
            </Array>
          </mxGeometry>
        </mxCell>
        <mxCell id="KONgexnpUvgXJjRVOLqW-244" value="" style="curved=1;startArrow=none;endArrow=block;exitX=1;exitY=0.52;entryX=0.5;entryY=0;rounded=0;" edge="1" parent="1" source="KONgexnpUvgXJjRVOLqW-131" target="KONgexnpUvgXJjRVOLqW-180">
          <mxGeometry relative="1" as="geometry">
            <Array as="points">
              <mxPoint x="9178" y="343" />
            </Array>
          </mxGeometry>
        </mxCell>
        <mxCell id="KONgexnpUvgXJjRVOLqW-245" value="" style="curved=1;startArrow=none;endArrow=block;exitX=0;exitY=0.63;entryX=0.5;entryY=0;rounded=0;" edge="1" parent="1" source="KONgexnpUvgXJjRVOLqW-180" target="KONgexnpUvgXJjRVOLqW-181">
          <mxGeometry relative="1" as="geometry">
            <Array as="points">
              <mxPoint x="8197" y="447" />
            </Array>
          </mxGeometry>
        </mxCell>
        <mxCell id="KONgexnpUvgXJjRVOLqW-246" value="" style="curved=1;startArrow=none;endArrow=block;exitX=0;exitY=0.77;entryX=0.5;entryY=0;rounded=0;" edge="1" parent="1" source="KONgexnpUvgXJjRVOLqW-181" target="KONgexnpUvgXJjRVOLqW-182">
          <mxGeometry relative="1" as="geometry">
            <Array as="points">
              <mxPoint x="7802" y="599" />
            </Array>
          </mxGeometry>
        </mxCell>
        <mxCell id="KONgexnpUvgXJjRVOLqW-247" value="" style="curved=1;startArrow=none;endArrow=block;exitX=0.2;exitY=1;entryX=0.5;entryY=0;rounded=0;" edge="1" parent="1" source="KONgexnpUvgXJjRVOLqW-181" target="KONgexnpUvgXJjRVOLqW-183">
          <mxGeometry relative="1" as="geometry">
            <Array as="points">
              <mxPoint x="8065" y="599" />
            </Array>
          </mxGeometry>
        </mxCell>
        <mxCell id="KONgexnpUvgXJjRVOLqW-248" value="" style="curved=1;startArrow=none;endArrow=block;exitX=0.8;exitY=1;entryX=0.5;entryY=0;rounded=0;" edge="1" parent="1" source="KONgexnpUvgXJjRVOLqW-181" target="KONgexnpUvgXJjRVOLqW-184">
          <mxGeometry relative="1" as="geometry">
            <Array as="points">
              <mxPoint x="8328" y="599" />
            </Array>
          </mxGeometry>
        </mxCell>
        <mxCell id="KONgexnpUvgXJjRVOLqW-249" value="" style="curved=1;startArrow=none;endArrow=block;exitX=1;exitY=0.82;entryX=0.5;entryY=0;rounded=0;" edge="1" parent="1" source="KONgexnpUvgXJjRVOLqW-181" target="KONgexnpUvgXJjRVOLqW-185">
          <mxGeometry relative="1" as="geometry">
            <Array as="points">
              <mxPoint x="8533" y="599" />
            </Array>
          </mxGeometry>
        </mxCell>
        <mxCell id="KONgexnpUvgXJjRVOLqW-250" value="" style="curved=1;startArrow=none;endArrow=block;exitX=0.5;exitY=1;entryX=0.5;entryY=0;rounded=0;" edge="1" parent="1" source="KONgexnpUvgXJjRVOLqW-180" target="KONgexnpUvgXJjRVOLqW-186">
          <mxGeometry relative="1" as="geometry">
            <Array as="points" />
          </mxGeometry>
        </mxCell>
        <mxCell id="KONgexnpUvgXJjRVOLqW-251" value="" style="curved=1;startArrow=none;endArrow=block;exitX=0;exitY=0.69;entryX=0.5;entryY=0;rounded=0;" edge="1" parent="1" source="KONgexnpUvgXJjRVOLqW-186" target="KONgexnpUvgXJjRVOLqW-187">
          <mxGeometry relative="1" as="geometry">
            <Array as="points">
              <mxPoint x="8760" y="599" />
            </Array>
          </mxGeometry>
        </mxCell>
        <mxCell id="KONgexnpUvgXJjRVOLqW-252" value="" style="curved=1;startArrow=none;endArrow=block;exitX=0.07;exitY=1;entryX=0.5;entryY=0;rounded=0;" edge="1" parent="1" source="KONgexnpUvgXJjRVOLqW-186" target="KONgexnpUvgXJjRVOLqW-188">
          <mxGeometry relative="1" as="geometry">
            <Array as="points">
              <mxPoint x="9039" y="599" />
            </Array>
          </mxGeometry>
        </mxCell>
        <mxCell id="KONgexnpUvgXJjRVOLqW-253" value="" style="curved=1;startArrow=none;endArrow=block;exitX=0.93;exitY=1;entryX=0.5;entryY=0;rounded=0;" edge="1" parent="1" source="KONgexnpUvgXJjRVOLqW-186" target="KONgexnpUvgXJjRVOLqW-189">
          <mxGeometry relative="1" as="geometry">
            <Array as="points">
              <mxPoint x="9316" y="599" />
            </Array>
          </mxGeometry>
        </mxCell>
        <mxCell id="KONgexnpUvgXJjRVOLqW-254" value="" style="curved=1;startArrow=none;endArrow=block;exitX=1;exitY=0.69;entryX=0.5;entryY=0;rounded=0;" edge="1" parent="1" source="KONgexnpUvgXJjRVOLqW-186" target="KONgexnpUvgXJjRVOLqW-190">
          <mxGeometry relative="1" as="geometry">
            <Array as="points">
              <mxPoint x="9595" y="599" />
            </Array>
          </mxGeometry>
        </mxCell>
        <mxCell id="KONgexnpUvgXJjRVOLqW-255" value="" style="curved=1;startArrow=none;endArrow=block;exitX=1;exitY=0.61;entryX=0.5;entryY=0;rounded=0;" edge="1" parent="1" source="KONgexnpUvgXJjRVOLqW-180" target="KONgexnpUvgXJjRVOLqW-191">
          <mxGeometry relative="1" as="geometry">
            <Array as="points">
              <mxPoint x="10338" y="447" />
            </Array>
          </mxGeometry>
        </mxCell>
        <mxCell id="KONgexnpUvgXJjRVOLqW-256" value="" style="curved=1;startArrow=none;endArrow=block;exitX=0;exitY=0.74;entryX=0.5;entryY=0;rounded=0;" edge="1" parent="1" source="KONgexnpUvgXJjRVOLqW-191" target="KONgexnpUvgXJjRVOLqW-192">
          <mxGeometry relative="1" as="geometry">
            <Array as="points">
              <mxPoint x="10050" y="570" />
            </Array>
          </mxGeometry>
        </mxCell>
        <mxCell id="KONgexnpUvgXJjRVOLqW-257" value="" style="curved=1;startArrow=none;endArrow=block;exitX=1;exitY=0.5;rounded=0;exitDx=0;exitDy=0;entryX=0.465;entryY=-0.064;entryDx=0;entryDy=0;entryPerimeter=0;" edge="1" parent="1" source="KONgexnpUvgXJjRVOLqW-191" target="KONgexnpUvgXJjRVOLqW-193">
          <mxGeometry relative="1" as="geometry">
            <Array as="points">
              <mxPoint x="10640" y="570" />
            </Array>
            <mxPoint x="10330" y="630" as="targetPoint" />
          </mxGeometry>
        </mxCell>
      </root>
    </mxGraphModel>
  </diagram>
</mxfile>
